<svg width="505" height="504" viewBox="0 0 505 504" fill="none" xmlns="http://www.w3.org/2000/svg">
<path fill-rule="evenodd" clip-rule="evenodd" d="M437.583 34.8706C440.256 33.2821 443.217 32.2347 446.296 31.7882C449.375 31.3417 452.512 31.5048 455.528 32.2683C458.543 33.0317 461.379 34.3805 463.873 36.2377C466.366 38.0948 468.469 40.4239 470.06 43.0921C471.652 45.7602 472.701 48.7151 473.149 51.788C473.596 54.8609 473.433 57.9917 472.668 61.0016C471.903 64.0114 470.551 66.8415 468.691 69.3301C466.83 71.8187 464.496 73.9171 461.823 75.5056C457.04 79.2291 452.819 83.6213 449.292 88.5466C442.822 97.5871 435.657 112.109 434.237 133.907C446.684 144.464 454.809 159.219 457.067 175.364C459.325 191.51 455.558 207.921 446.483 221.477L445.599 222.831C439.538 231.917 435.632 242.262 434.177 253.08C432.722 263.898 433.758 274.905 437.204 285.264L452.07 329.805C457.523 346.097 459.018 363.449 456.43 380.43C453.843 397.412 447.248 413.536 437.189 427.473C427.13 441.411 413.895 452.762 398.576 460.591C383.256 468.419 366.292 472.501 349.081 472.5H73.6038C62.4508 472.492 51.7575 468.064 43.8742 460.19C35.9908 452.317 31.5625 441.641 31.5625 430.511C31.5625 391.986 57.5069 359.541 92.92 349.619C73.9825 323.505 63.125 288.225 63.125 252C63.125 207.522 77.5806 167.769 105.703 139.01C133.92 110.187 173.878 94.5001 220.938 94.5001C268.976 94.5001 304.357 119.763 323.389 155.295C326.735 149.961 330.628 145.131 335.068 140.805C325.047 121.414 321.089 99.4668 323.705 77.8051C325.1 66.8933 328.221 56.2717 332.953 46.3366L334.089 44.1631L334.499 43.4386L334.657 43.1866L334.72 43.0606L334.752 43.0291V42.9661C336.364 40.3083 338.485 37.9935 340.994 36.1538C343.503 34.3141 346.35 32.9856 349.373 32.2441C352.396 31.5026 355.536 31.3626 358.614 31.8322C361.691 32.3018 364.646 33.3717 367.309 34.9808C369.972 36.59 372.291 38.7069 374.134 41.2106C375.978 43.7144 377.309 46.556 378.052 49.5732C378.795 52.5903 378.935 55.724 378.465 58.7953C377.994 61.8666 376.922 64.8153 375.31 67.4731C372.978 72.6013 371.425 78.0476 370.702 83.6326C369.236 95.9039 371.513 108.331 377.235 119.291C380.875 118.682 384.568 118.325 388.313 118.22C391.094 97.6469 398.803 78.0463 410.786 61.0786C415.783 54.0525 421.588 47.6352 428.082 41.9581C430.73 39.6967 433.502 37.583 436.383 35.6266L437.078 35.1541L437.393 34.9966L437.488 34.9336L437.551 34.9021L437.583 34.8706ZM244.609 338.625C272.29 338.625 294.163 326.655 309.628 309.015C327.188 289.507 339.799 266.075 346.398 240.692L359.844 189C361.775 181.614 366.328 175.179 372.656 170.892C378.984 166.604 386.656 164.756 394.247 165.69C398.73 166.377 402.817 168.646 405.765 172.085C408.714 175.525 410.327 179.906 410.313 184.433C410.314 188.28 409.196 192.044 407.093 195.269L406.209 196.623C396.151 211.7 389.672 228.869 387.266 246.823C384.859 264.776 386.588 283.041 392.322 300.227L407.156 344.736C410.24 353.926 411.089 363.715 409.634 373.297C408.179 382.879 404.461 391.978 398.788 399.843C393.115 407.708 385.649 414.114 377.006 418.531C368.363 422.949 358.792 425.252 349.081 425.25H79.2534C81.7784 407.453 97.1494 393.75 115.708 393.75H137.108C143.467 393.775 149.654 391.681 154.686 387.8C159.718 383.919 163.309 378.473 164.889 372.325C166.469 366.177 165.948 359.678 163.408 353.859C160.869 348.04 156.456 343.233 150.869 340.2C130.385 328.797 110.469 295.281 110.469 252C110.469 217.728 121.453 190.575 139.569 172.053C157.592 153.626 184.704 141.75 220.938 141.75C263.421 141.75 291.953 175.014 291.953 220.5C291.953 240.629 286.84 259.403 278.16 272.349C269.954 284.634 259.097 291.375 244.609 291.375C217.15 291.375 205.156 273.483 205.156 259.875C205.156 242.519 217.15 236.25 220.938 236.25C227.216 236.25 233.237 233.761 237.676 229.33C242.115 224.9 244.609 218.891 244.609 212.625C244.609 206.359 242.115 200.35 237.676 195.92C233.237 191.489 227.216 189 220.938 189C185.903 189 157.813 221.76 157.813 259.875C157.813 301.739 193.163 338.625 244.609 338.625Z" fill="url(#paint0_linear_2_91)"/>
<defs>
<linearGradient id="paint0_linear_2_91" x1="252.479" y1="31.5425" x2="252.479" y2="472.5" gradientUnits="userSpaceOnUse">
<stop stop-color="#45679C"/>
<stop offset="1" stop-color="#1F2836"/>
</linearGradient>
</defs>
</svg>
